<svg xmlns="http://www.w3.org/2000/svg" xmlns:xlink="http://www.w3.org/1999/xlink" width="500" zoomAndPan="magnify" viewBox="0 0 375 374.999991" height="500" preserveAspectRatio="xMidYMid meet" version="1.0"><defs><g/></defs><rect x="-37.5" width="450" fill="#ffffff" y="-37.499999" height="449.999989" fill-opacity="1"/><rect x="-37.5" width="450" fill="#f6f4f0" y="-37.499999" height="449.999989" fill-opacity="1"/><g fill="#222222" fill-opacity="1"><g transform="translate(75.987744, 209.896133)"><g><path d="M 56.4375 -10.375 C 59.570312 -10.375 62.570312 -11.128906 65.4375 -12.640625 C 68.300781 -14.160156 70.867188 -16.269531 73.140625 -18.96875 L 73.953125 -18.484375 C 70.710938 -12.648438 66.332031 -7.972656 60.8125 -4.453125 C 55.300781 -0.941406 49.25 0.8125 42.65625 0.8125 C 35.84375 0.8125 29.648438 -1.023438 24.078125 -4.703125 C 18.515625 -8.378906 14.054688 -13.328125 10.703125 -19.546875 C 7.347656 -25.765625 5.671875 -32.65625 5.671875 -40.21875 C 5.671875 -47.789062 7.347656 -54.6875 10.703125 -60.90625 C 14.054688 -67.125 18.515625 -72.066406 24.078125 -75.734375 C 29.648438 -79.410156 35.84375 -81.25 42.65625 -81.25 C 48.601562 -81.25 53.925781 -79.84375 58.625 -77.03125 C 63.332031 -74.226562 67.28125 -70.421875 70.46875 -65.609375 C 73.65625 -60.796875 75.847656 -55.304688 77.046875 -49.140625 L 30 -49.140625 C 30 -42.003906 31.1875 -35.488281 33.5625 -29.59375 C 35.945312 -23.707031 39.140625 -19.03125 43.140625 -15.5625 C 47.140625 -12.101562 51.570312 -10.375 56.4375 -10.375 Z M 42.65625 -80.28125 C 40.382812 -80.28125 38.519531 -79.441406 37.0625 -77.765625 C 35.601562 -76.085938 34.382812 -73.925781 33.40625 -71.28125 C 32.4375 -68.632812 31.734375 -65.90625 31.296875 -63.09375 C 30.867188 -60.28125 30.546875 -57.679688 30.328125 -55.296875 C 30.109375 -52.921875 30 -51.191406 30 -50.109375 L 54.984375 -50.109375 C 54.003906 -70.222656 49.894531 -80.28125 42.65625 -80.28125 Z M 42.65625 -80.28125 "/></g></g></g><g fill="#222222" fill-opacity="1"><g transform="translate(139.726118, 209.896133)"><g><path d="M 68.28125 -17.515625 C 72.382812 -16.546875 76.03125 -14.707031 79.21875 -12 C 82.414062 -9.300781 84.957031 -6.003906 86.84375 -2.109375 C 88.738281 1.785156 89.6875 6.003906 89.6875 10.546875 C 89.6875 15.835938 88.441406 20.644531 85.953125 24.96875 C 83.472656 29.300781 80.175781 32.765625 76.0625 35.359375 C 71.957031 37.953125 67.414062 39.25 62.4375 39.25 C 58.332031 39.25 54.441406 38.410156 50.765625 36.734375 C 47.085938 35.054688 44.140625 32.8125 41.921875 30 C 39.703125 27.1875 38.59375 24.160156 38.59375 20.921875 C 38.59375 17.460938 39.835938 14.488281 42.328125 12 C 44.816406 9.507812 47.789062 8.265625 51.25 8.265625 C 54.707031 8.265625 57.648438 9.507812 60.078125 12 C 62.515625 14.488281 63.734375 17.460938 63.734375 20.921875 C 63.734375 24.492188 62.546875 27.46875 60.171875 29.84375 C 59.410156 30.601562 58.757812 31.414062 58.21875 32.28125 C 57.6875 33.144531 57.421875 34.007812 57.421875 34.875 C 57.421875 37.144531 59.09375 38.28125 62.4375 38.28125 C 67.300781 38.28125 71.707031 37.035156 75.65625 34.546875 C 79.601562 32.054688 82.765625 28.703125 85.140625 24.484375 C 87.523438 20.273438 88.71875 15.628906 88.71875 10.546875 C 88.71875 6.648438 87.820312 3.132812 86.03125 0 C 84.25 -3.132812 81.867188 -5.617188 78.890625 -7.453125 C 75.921875 -9.296875 72.601562 -10.21875 68.9375 -10.21875 C 65.144531 -10.21875 61.707031 -9.21875 58.625 -7.21875 C 55.550781 -5.21875 52.660156 -2.785156 49.953125 0.078125 C 47.253906 2.941406 44.550781 5.832031 41.84375 8.75 C 39.144531 11.675781 36.226562 14.140625 33.09375 16.140625 C 29.957031 18.140625 26.382812 19.140625 22.375 19.140625 C 18.59375 19.140625 15.109375 18.164062 11.921875 16.21875 C 8.734375 14.269531 6.21875 11.617188 4.375 8.265625 C 2.539062 4.921875 1.625 1.25 1.625 -2.75 C 1.625 -7.726562 3.03125 -12.132812 5.84375 -15.96875 C 8.65625 -19.8125 12.222656 -22.378906 16.546875 -23.671875 C 14.054688 -26.703125 12.109375 -30.082031 10.703125 -33.8125 C 9.296875 -37.539062 8.59375 -41.460938 8.59375 -45.578125 C 8.59375 -52.171875 10.269531 -58.171875 13.625 -63.578125 C 16.976562 -68.984375 21.4375 -73.28125 27 -76.46875 C 32.570312 -79.65625 38.765625 -81.25 45.578125 -81.25 C 51.085938 -81.25 56.273438 -80.171875 61.140625 -78.015625 C 58.441406 -80.503906 55.738281 -83.75 53.03125 -87.75 C 50.332031 -91.75 48.984375 -96.125 48.984375 -100.875 C 48.984375 -104.34375 50.222656 -107.316406 52.703125 -109.796875 C 55.191406 -112.285156 58.164062 -113.53125 61.625 -113.53125 C 65.09375 -113.53125 68.039062 -112.285156 70.46875 -109.796875 C 72.90625 -107.316406 74.125 -104.34375 74.125 -100.875 C 74.125 -98.175781 73.335938 -95.796875 71.765625 -93.734375 C 70.203125 -91.679688 68.226562 -90.117188 65.84375 -89.046875 C 62.164062 -87.523438 60.328125 -85.46875 60.328125 -82.875 C 60.328125 -81.46875 60.894531 -80.113281 62.03125 -78.8125 C 63.164062 -77.519531 64.546875 -76.332031 66.171875 -75.25 C 71.253906 -72.007812 75.253906 -67.820312 78.171875 -62.6875 C 81.085938 -57.550781 82.546875 -51.847656 82.546875 -45.578125 C 82.546875 -39.953125 81.273438 -34.675781 78.734375 -29.75 C 76.203125 -24.832031 72.71875 -20.753906 68.28125 -17.515625 Z M 45.578125 -80.28125 C 37.253906 -80.28125 33.09375 -68.710938 33.09375 -45.578125 C 33.09375 -25.242188 36.332031 -13.835938 42.8125 -11.359375 C 44.65625 -12.429688 46.46875 -13.398438 48.25 -14.265625 C 50.03125 -15.128906 51.785156 -15.890625 53.515625 -16.546875 C 56.648438 -22.171875 58.21875 -31.847656 58.21875 -45.578125 C 58.21875 -68.710938 54.003906 -80.28125 45.578125 -80.28125 Z M 11.671875 -13.78125 C 11.671875 -10.863281 12.722656 -8.347656 14.828125 -6.234375 C 16.941406 -4.128906 19.457031 -3.078125 22.375 -3.078125 C 25.40625 -3.078125 28.429688 -3.832031 31.453125 -5.34375 C 34.484375 -6.863281 37.625 -8.488281 40.875 -10.21875 C 36.113281 -10.863281 31.675781 -12.320312 27.5625 -14.59375 C 23.457031 -16.863281 19.945312 -19.675781 17.03125 -23.03125 C 13.457031 -20.863281 11.671875 -17.78125 11.671875 -13.78125 Z M 11.671875 -13.78125 "/></g></g></g><g fill="#222222" fill-opacity="1"><g transform="translate(213.682303, 209.896133)"><g><path d="M 42.65625 -81.25 C 49.46875 -81.25 55.65625 -79.410156 61.21875 -75.734375 C 66.789062 -72.066406 71.253906 -67.125 74.609375 -60.90625 C 77.960938 -54.6875 79.640625 -47.789062 79.640625 -40.21875 C 79.640625 -32.65625 77.960938 -25.765625 74.609375 -19.546875 C 71.253906 -13.328125 66.789062 -8.378906 61.21875 -4.703125 C 55.65625 -1.023438 49.46875 0.8125 42.65625 0.8125 C 35.84375 0.8125 29.648438 -1.023438 24.078125 -4.703125 C 18.515625 -8.378906 14.054688 -13.328125 10.703125 -19.546875 C 7.347656 -25.765625 5.671875 -32.65625 5.671875 -40.21875 C 5.671875 -47.789062 7.347656 -54.6875 10.703125 -60.90625 C 14.054688 -67.125 18.515625 -72.066406 24.078125 -75.734375 C 29.648438 -79.410156 35.84375 -81.25 42.65625 -81.25 Z M 42.65625 -0.15625 C 50.976562 -0.15625 55.140625 -13.507812 55.140625 -40.21875 C 55.140625 -66.925781 50.976562 -80.28125 42.65625 -80.28125 C 34.21875 -80.28125 30 -66.925781 30 -40.21875 C 30 -13.507812 34.21875 -0.15625 42.65625 -0.15625 Z M 42.65625 -0.15625 "/></g></g></g></svg>